{
    "accessors" : [
        {
            "bufferView" : 0, 
            "componentType" : 5123, 
            "count" : 3204, 
            "max" : [
                921
            ], 
            "min" : [
                0
            ], 
            "type" : "SCALAR"
        }, 
        {
            "bufferView" : 1, 
            "componentType" : 5126, 
            "count" : 922, 
            "max" : [
                1.0032131671905518, 
                1.0, 
                1.0000003576278687
            ], 
            "min" : [
                -1.0000001192092896, 
                -1.0, 
                -1.0000003576278687
            ], 
            "type" : "VEC3"
        }, 
        {
            "bufferView" : 2, 
            "componentType" : 5126, 
            "count" : 922, 
            "max" : [
                1.0, 
                1.0, 
                1.0
            ], 
            "min" : [
                -1.0, 
                -1.0, 
                -1.0
            ], 
            "type" : "VEC3"
        }, 
        {
            "bufferView" : 3, 
            "componentType" : 5126, 
            "count" : 922, 
            "max" : [
                1.0, 
                1.0
            ], 
            "min" : [
                0.0, 
                0.0
            ], 
            "type" : "VEC2"
        }, 
        {
            "bufferView" : 4, 
            "componentType" : 5121, 
            "count" : 900, 
            "max" : [
                241
            ], 
            "min" : [
                0
            ], 
            "type" : "SCALAR"
        }, 
        {
            "bufferView" : 5, 
            "componentType" : 5126, 
            "count" : 242, 
            "max" : [
                -0.29071545600891113, 
                1.0712275505065918, 
                0.4708367884159088
            ], 
            "min" : [
                -0.4055212140083313, 
                0.08798927068710327, 
                -0.4708367884159088
            ], 
            "type" : "VEC3"
        }, 
        {
            "bufferView" : 6, 
            "componentType" : 5126, 
            "count" : 242, 
            "max" : [
                1.0, 
                1.0, 
                1.0
            ], 
            "min" : [
                -1.0, 
                -1.0, 
                -1.0
            ], 
            "type" : "VEC3"
        }, 
        {
            "bufferView" : 7, 
            "componentType" : 5126, 
            "count" : 242, 
            "max" : [
                0.9573389291763306, 
                0.42629528045654297
            ], 
            "min" : [
                0.0003804015286732465, 
                0.043759942054748535
            ], 
            "type" : "VEC2"
        }, 
        {
            "bufferView" : 8, 
            "componentType" : 5123, 
            "count" : 4764, 
            "max" : [
                1322
            ], 
            "min" : [
                0
            ], 
            "type" : "SCALAR"
        }, 
        {
            "bufferView" : 9, 
            "componentType" : 5126, 
            "count" : 1323, 
            "max" : [
                0.10000002384185791, 
                3.0, 
                2.1000001430511475
            ], 
            "min" : [
                -0.6101474761962891, 
                0.0, 
                -2.1000001430511475
            ], 
            "type" : "VEC3"
        }, 
        {
            "bufferView" : 10, 
            "componentType" : 5126, 
            "count" : 1323, 
            "max" : [
                1.0, 
                1.0, 
                1.0
            ], 
            "min" : [
                -1.0, 
                -1.0, 
                -1.0
            ], 
            "type" : "VEC3"
        }, 
        {
            "bufferView" : 11, 
            "componentType" : 5126, 
            "count" : 1323, 
            "max" : [
                0.9996196627616882, 
                0.9996195983258076
            ], 
            "min" : [
                0.00038040155777707696, 
                0.04714435338973999
            ], 
            "type" : "VEC2"
        }
    ], 
    "asset" : {
        "generator" : "Khronos Blender glTF 2.0 exporter", 
        "version" : "2.0"
    }, 
    "bufferViews" : [
        {
            "buffer" : 0, 
            "byteLength" : 6408, 
            "byteOffset" : 0, 
            "target" : 34963
        }, 
        {
            "buffer" : 0, 
            "byteLength" : 11064, 
            "byteOffset" : 6408, 
            "target" : 34962
        }, 
        {
            "buffer" : 0, 
            "byteLength" : 11064, 
            "byteOffset" : 17472, 
            "target" : 34962
        }, 
        {
            "buffer" : 0, 
            "byteLength" : 7376, 
            "byteOffset" : 28536, 
            "target" : 34962
        }, 
        {
            "buffer" : 0, 
            "byteLength" : 900, 
            "byteOffset" : 35912, 
            "target" : 34963
        }, 
        {
            "buffer" : 0, 
            "byteLength" : 2904, 
            "byteOffset" : 36812, 
            "target" : 34962
        }, 
        {
            "buffer" : 0, 
            "byteLength" : 2904, 
            "byteOffset" : 39716, 
            "target" : 34962
        }, 
        {
            "buffer" : 0, 
            "byteLength" : 1936, 
            "byteOffset" : 42620, 
            "target" : 34962
        }, 
        {
            "buffer" : 0, 
            "byteLength" : 9528, 
            "byteOffset" : 44556, 
            "target" : 34963
        }, 
        {
            "buffer" : 0, 
            "byteLength" : 15876, 
            "byteOffset" : 54084, 
            "target" : 34962
        }, 
        {
            "buffer" : 0, 
            "byteLength" : 15876, 
            "byteOffset" : 69960, 
            "target" : 34962
        }, 
        {
            "buffer" : 0, 
            "byteLength" : 10584, 
            "byteOffset" : 85836, 
            "target" : 34962
        }
    ], 
    "buffers" : [
        {
            "byteLength" : 96420, 
            "uri" : "tv.bin"
        }
    ], 
    "cameras" : [
        {
            "name" : "Camera", 
            "perspective" : {
                "aspectRatio" : 1.7777777777777777, 
                "yfov" : 0.5033799372418416, 
                "zfar" : 100.0, 
                "znear" : 0.10000000149011612
            }, 
            "type" : "perspective"
        }
    ], 
    "images" : [
        {
            "uri" : "data:image/png;base64,"
        }, 
        {
            "uri" : "data:image/png;base64,"
        }
    ], 
    "materials" : [
        {
            "name" : "black_plastic", 
            "pbrMetallicRoughness" : {
                "baseColorTexture" : {
                    "index" : 0
                }, 
                "metallicFactor" : 0.0, 
                "roughnessFactor" : 0.045454561710357666
            }
        }, 
        {
            "name" : "Material", 
            "pbrMetallicRoughness" : {
                "baseColorTexture" : {
                    "index" : 1
                }, 
                "roughnessFactor" : 0.19999998807907104
            }
        }, 
        {
            "name" : "shiny_metal", 
            "pbrMetallicRoughness" : {
                "baseColorTexture" : {
                    "index" : 0
                }, 
                "roughnessFactor" : 0.2454545497894287
            }
        }
    ], 
    "meshes" : [
        {
            "name" : "Cube", 
            "primitives" : [
                {
                    "attributes" : {
                        "NORMAL" : 2, 
                        "POSITION" : 1, 
                        "TEXCOORD_0" : 3
                    }, 
                    "indices" : 0, 
                    "material" : 1
                }
            ]
        }, 
        {
            "name" : "Cube.004", 
            "primitives" : [
                {
                    "attributes" : {
                        "NORMAL" : 6, 
                        "POSITION" : 5, 
                        "TEXCOORD_0" : 7
                    }, 
                    "indices" : 4, 
                    "material" : 2
                }, 
                {
                    "attributes" : {
                        "NORMAL" : 10, 
                        "POSITION" : 9, 
                        "TEXCOORD_0" : 11
                    }, 
                    "indices" : 8, 
                    "material" : 0
                }
            ]
        }
    ], 
    "nodes" : [
        {
            "camera" : 0, 
            "name" : "Correction_Camera", 
            "rotation" : [
                -0.7071067690849304, 
                -0.0, 
                0.0, 
                0.7071067690849304
            ]
        }, 
        {
            "children" : [
                0
            ], 
            "name" : "Camera", 
            "rotation" : [
                0.483536034822464, 
                0.33687159419059753, 
                -0.20870360732078552, 
                0.7804827094078064
            ], 
            "translation" : [
                7.481131553649902, 
                5.34366512298584, 
                6.5076398849487305
            ]
        }, 
        {
            "mesh" : 0, 
            "name" : "Cube"
        }, 
        {
            "name" : "pixelStart", 
            "rotation" : [
                0.0, 
                0.7071068286895752, 
                -0.0, 
                0.7071067690849304
            ], 
            "translation" : [
                1.9914230108261108, 
                2.8914225101470947, 
                -1.1920928955078125e-07
            ]
        }, 
        {
            "mesh" : 1, 
            "name" : "tv", 
            "rotation" : [
                0.0, 
                0.7071068286895752, 
                -0.0, 
                0.7071067690849304
            ]
        }
    ], 
    "samplers" : [
        {}
    ], 
    "scene" : 0, 
    "scenes" : [
        {
            "name" : "Scene", 
            "nodes" : [
                3, 
                4, 
                2, 
                1
            ]
        }
    ], 
    "textures" : [
        {
            "sampler" : 0, 
            "source" : 0
        }, 
        {
            "sampler" : 0, 
            "source" : 1
        }, 
        {
            "sampler" : 0, 
            "source" : 0
        }
    ]
}
